HIERARCHY
ROOT Hips
{
    OFFSET 0.000000 0.000000 0.000000
    CHANNELS 6 Xposition Yposition Zposition Zrotation Xrotation Yrotation
    JOINT Spine
    {
        OFFSET -0.000000 14.517291 0.000000
        CHANNELS 3 Zrotation Xrotation Yrotation
        JOINT Spine1
        {
            OFFSET -0.000000 37.558300 0.000000
            CHANNELS 3 Zrotation Xrotation Yrotation
            JOINT Neck
            {
                OFFSET -0.000000 37.404057 3.400369
                CHANNELS 3 Zrotation Xrotation Yrotation
                JOINT Head
                {
                    OFFSET -0.000000 24.785618 -3.540803
                    CHANNELS 3 Zrotation Xrotation Yrotation
                    End Site
                    {
                        OFFSET -0.000000 35.408028 0.000000
                    }
                }
            }
            JOINT LeftShoulder
            {
                OFFSET 6.992933 33.973492 -0.192664
                CHANNELS 3 Zrotation Xrotation Yrotation
                JOINT LeftArm
                {
                    OFFSET 21.527611 0.000000 0.000000
                    CHANNELS 3 Zrotation Xrotation Yrotation
                    JOINT LeftForeArm
                    {
                        OFFSET 56.353916 0.000000 0.000000
                        CHANNELS 3 Zrotation Xrotation Yrotation
                        JOINT LeftHand
                        {
                            OFFSET 47.774071 0.000000 0.000000
                            CHANNELS 3 Zrotation Xrotation Yrotation
                            End Site
                            {
                                OFFSET 26.556021 0.000000 0.000000
                            }
                        }
                    }
                }
            }
            JOINT RightShoulder
            {
                OFFSET -7.065357 33.973492 -0.192664
                CHANNELS 3 Zrotation Xrotation Yrotation
                JOINT RightArm
                {
                    OFFSET -21.527611 0.000000 0.000000
                    CHANNELS 3 Zrotation Xrotation Yrotation
                    JOINT RightForeArm
                    {
                        OFFSET -56.353916 0.000000 0.000000
                        CHANNELS 3 Zrotation Xrotation Yrotation
                        JOINT RightHand
                        {
                            OFFSET -47.774071 0.000000 0.000000
                            CHANNELS 3 Zrotation Xrotation Yrotation
                            End Site
                            {
                                OFFSET -26.556021 0.000000 0.000000
                            }
                        }
                    }
                }
            }
        }
    }
    JOINT LeftUpLeg
    {
        OFFSET 17.704014 0.000000 0.000000
        CHANNELS 3 Zrotation Xrotation Yrotation
        JOINT LeftLeg
        {
            OFFSET -0.000000 -81.181816 0.000000
            CHANNELS 3 Zrotation Xrotation Yrotation
            JOINT LeftFoot
            {
                OFFSET -0.000000 -62.821102 0.000000
                CHANNELS 3 Zrotation Xrotation Yrotation
                JOINT LeftToeBase
                {
                    OFFSET -0.000000 -11.507608 26.556021
                    CHANNELS 3 Zrotation Xrotation Yrotation
                    End Site
                    {
                        OFFSET -0.000000 0.000000 7.081605
                    }
                }
            }
        }
    }
    JOINT RightUpLeg
    {
        OFFSET -17.704014 0.000000 0.000000
        CHANNELS 3 Zrotation Xrotation Yrotation
        JOINT RightLeg
        {
            OFFSET -0.000000 -81.181816 0.000000
            CHANNELS 3 Zrotation Xrotation Yrotation
            JOINT RightFoot
            {
                OFFSET -0.000000 -62.821102 0.000000
                CHANNELS 3 Zrotation Xrotation Yrotation
                JOINT RightToeBase
                {
                    OFFSET -0.000000 -11.507608 26.556021
                    CHANNELS 3 Zrotation Xrotation Yrotation
                    End Site
                    {
                        OFFSET -0.000000 0.000000 7.081605
                    }
                }
            }
        }
    }
}
MOTION
Frames:    4
Frame Time:    0.008333
-1.057593    157.265503    -94.255829    1.755728    -1.843027    61.736534    -1.567555    -0.327388    -1.947147    -6.150868    3.546825    -0.455612    9.653680    -1.792994    -10.414111    9.134211    2.613699    -11.357047    8.498523    5.729599    -21.793665    -27.184685    21.895927    -59.894104    -15.086946    0.435911    -94.494514    16.299698    -16.571262    -4.990778    -13.712526    -5.192013    -3.537304    25.273937    -22.695337    61.523254    -13.862000    -13.673822    52.723637    -9.060842    -9.108060    27.866055    12.939591    -12.781781    -22.183731    -6.439445    27.510504    -31.663349    -2.311392    -19.882923    35.413597    0.000000    0.000000    0.000000    -13.512539    -16.765263    13.492821    9.190249    29.666683    -3.050474    3.387226    -8.013783    -15.951234    0.000000    0.000000    0.000000    
-1.043218    157.244736    -94.192513    1.749536    -1.861561    61.761200    -1.575503    -0.331523    -1.965960    -6.152801    3.553846    -0.461416    9.651081    -1.805116    -10.436646    9.147320    2.614414    -11.379726    8.501565    5.716746    -21.811604    -27.171732    21.932985    -59.905968    -15.031569    0.354592    -94.497055    16.190519    -16.587833    -5.007139    -13.705462    -5.189742    -3.562821    25.271526    -22.725990    61.513523    -13.815166    -13.625539    52.724442    -9.068611    -9.082665    27.848078    12.970354    -12.794048    -22.161152    -6.429806    27.554966    -31.700794    -2.293382    -19.883179    35.407539    0.000000    0.000000    0.000000    -13.493676    -16.775438    13.435161    9.222900    29.714796    -3.115816    3.319319    -7.930744    -15.946365    0.000000    0.000000    0.000000    
-1.023869    157.227707    -94.136444    1.752452    -1.870141    61.790657    -1.598400    -0.335227    -1.992172    -6.151421    3.569048    -0.469305    9.660842    -1.830145    -10.437510    9.137340    2.618896    -11.385949    8.505793    5.704136    -21.832176    -27.177773    21.941723    -59.913795    -15.015814    0.326562    -94.492935    16.184450    -16.596895    -5.011621    -13.705418    -5.211272    -3.585516    25.252338    -22.724697    61.485130    -13.791348    -13.593642    52.720406    -9.112453    -9.073339    27.846144    12.980809    -12.799746    -22.148317    -6.415348    27.597027    -31.727741    -2.289411    -19.887365    35.397533    0.000000    0.000000    0.000000    -13.496353    -16.771469    13.371745    9.257046    29.751493    -3.176826    3.264690    -7.879525    -15.884663    0.000000    0.000000    0.000000    
-1.009658    157.213760    -94.077660    1.746297    -1.884442    61.818367    -1.624445    -0.328991    -2.013213    -6.131959    3.555794    -0.477659    9.634478    -1.837691    -10.451442    9.174455    2.634365    -11.393616    8.498753    5.710423    -21.858019    -27.173382    21.962286    -59.923790    -14.976075    0.267842    -94.487595    16.105417    -16.606184    -5.016804    -13.709836    -5.199859    -3.610347    25.220224    -22.715464    61.461746    -13.817025    -13.588932    52.692898    -9.105521    -9.057871    27.842918    13.007292    -12.805873    -22.123594    -6.407032    27.615620    -31.721529    -2.290619    -19.862576    35.351425    0.000000    0.000000    0.000000    -13.479735    -16.774256    13.305503    9.278672    29.785625    -3.229653    3.112482    -7.743084    -15.826792    0.000000    0.000000    0.000000    
